<svg width="400" height="153" viewBox="0 0 400 153" fill="none" xmlns="http://www.w3.org/2000/svg">
<path d="M109.812 65.642C109.612 65.0582 109.276 64.5304 108.832 64.1025C108.668 63.9503 108.49 63.8132 108.301 63.6931C106.796 62.6897 104.547 62.4649 103.117 63.6931C102.973 63.818 102.84 63.9549 102.719 64.1025C102.293 64.6272 101.855 65.1404 101.405 65.642C100.667 66.4839 99.9114 67.2969 99.1214 68.0869C98.8965 68.306 98.6716 68.5309 98.441 68.75C98.3084 68.8826 98.1758 69.0095 98.0431 69.1363C97.5357 69.6207 97.0168 70.0877 96.492 70.549C96.2153 70.797 95.9385 71.0392 95.6559 71.2756C95.235 71.6273 94.8141 71.9791 94.3874 72.3193C94.347 72.3481 94.3067 72.3769 94.2663 72.4115C94.2548 72.4173 94.249 72.4288 94.2375 72.4346C94.2317 72.4346 94.2259 72.4346 94.2202 72.4461C94.2046 72.4523 94.1907 72.4622 94.1798 72.475C94.0529 72.5614 93.9665 72.6191 93.903 72.671C93.9261 72.6595 93.9492 72.6422 93.9722 72.6306C93.8684 72.7113 93.7589 72.7921 93.6551 72.8728C92.646 73.6167 91.6138 74.3316 90.5586 75.0005C87.9479 76.6714 85.2057 78.1274 82.3592 79.354C82.1689 79.4289 81.9728 79.5097 81.7768 79.5846C74.3238 82.6381 66.239 83.8295 58.222 83.0559C57.4032 82.9924 56.5844 82.9059 55.7656 82.7964C54.8199 82.658 53.8801 82.4908 52.9459 82.3005C49.3897 81.5909 45.9101 80.5405 42.5553 79.1637C38.3588 77.242 34.3675 74.9005 30.6424 72.1751C30.0658 71.7657 29.4834 71.3563 28.901 70.9585C29.5641 69.3324 30.2157 67.7063 30.85 66.0687C31.1671 65.2788 31.4727 64.4888 31.7726 63.6931C34.1309 57.5636 36.3451 51.3765 38.4671 45.1664C40.6121 38.8755 42.636 32.5481 44.5389 26.1841C44.7349 25.5383 44.9252 24.8925 45.1097 24.2467C46.1073 20.885 47.0644 17.5157 47.9813 14.1386C48.0678 13.81 48.16 13.4871 48.2407 13.1584C48.506 12.1897 48.7654 11.2209 49.0192 10.2522C49.5958 8.06684 48.2926 5.45478 45.9977 4.93006C44.8927 4.64675 43.721 4.8034 42.7293 5.36703C41.7375 5.93065 41.0033 6.85723 40.6813 7.95153C40.4333 8.88565 40.1854 9.814 39.9317 10.7481C38.715 15.263 37.4349 19.7625 36.0914 24.2467C35.8954 24.8925 35.6993 25.5383 35.5033 26.1841C32.5395 35.952 29.2854 45.6219 25.7411 55.1937C25.3145 56.3527 24.882 57.5079 24.4438 58.6592C24.2304 59.2243 24.0171 59.7894 23.798 60.3545C23.377 61.4673 22.9446 62.5802 22.5121 63.6931C22.2641 64.3446 22.0104 64.9962 21.7567 65.642C21.5895 66.0514 21.4281 66.4608 21.2666 66.8645C19.6226 66.2741 17.9192 65.8643 16.1866 65.642L15.9098 65.6074C14.5666 65.4458 13.2081 65.4575 11.8678 65.642C9.86174 65.8761 7.93163 66.548 6.21387 67.6101C4.49611 68.6722 3.03263 70.0988 1.92688 71.7888C-0.823578 76.1192 -0.788983 82.312 3.06858 85.9909C7.04147 89.7792 13.0556 89.7504 17.732 87.3805C20.2101 86.0398 22.2997 84.0813 23.798 81.695C24.3719 80.8301 24.8994 79.935 25.3779 79.0138C25.499 79.0945 25.6201 79.1752 25.7411 79.2617C26.2024 79.5846 26.6637 79.9133 27.1193 80.2362C29.7734 82.1591 32.5705 83.8766 35.486 85.3739C41.7549 88.4904 48.5031 90.5312 55.4485 91.411C55.6041 91.4283 55.7541 91.4514 55.9097 91.4687C56.6766 91.5667 57.4493 91.6417 58.222 91.7051C69.3058 92.5404 80.4032 90.2722 90.2703 85.1547C91.1064 84.7223 91.9348 84.2687 92.7555 83.7939C94.0299 83.0558 95.2754 82.2717 96.492 81.4413C97.1551 80.9916 97.801 80.536 98.441 80.0574C101.238 77.9974 103.845 75.6914 106.231 73.1669C107.136 72.2155 108.003 71.2333 108.832 70.2203C109.615 69.3917 110.067 68.3041 110.1 67.1643C110.096 66.6437 109.998 66.1282 109.812 65.642V65.642ZM14.3299 79.377C14.451 79.2905 14.5721 79.1983 14.6874 79.106C14.6528 79.1925 14.4856 79.2905 14.3299 79.377H14.3299ZM16.1809 77.5146C16.0482 77.6645 15.9271 77.8144 15.7945 77.9643C15.391 78.4159 14.9576 78.8397 14.4971 79.2329C14.4337 79.2905 14.3645 79.3482 14.2953 79.4001C14.2946 79.4001 14.2938 79.4002 14.2931 79.4005C14.2924 79.4008 14.2917 79.4012 14.2912 79.4017C14.2907 79.4023 14.2902 79.4029 14.29 79.4036C14.2897 79.4044 14.2895 79.4051 14.2895 79.4059C14.2063 79.4431 14.1254 79.4855 14.0473 79.5327C13.7994 79.6827 13.5457 79.821 13.2862 79.9479C12.7782 80.1349 12.2555 80.2796 11.7236 80.3803C11.3149 80.4102 10.9046 80.414 10.4954 80.3919H10.4839C10.2015 80.3292 9.92241 80.2522 9.64779 80.1612C9.5094 80.092 9.37677 80.0114 9.24415 79.9306C9.19226 79.8845 9.1461 79.8383 9.1173 79.8095C9.06096 79.7581 9.00892 79.7022 8.96165 79.6423C8.96167 79.6415 8.96151 79.6407 8.96123 79.64C8.96094 79.6393 8.96054 79.6387 8.96 79.6382C8.95946 79.6376 8.9588 79.6372 8.9581 79.6369C8.95739 79.6366 8.95664 79.6365 8.95588 79.6365C8.89242 79.5212 8.82323 79.4059 8.75983 79.2905C8.75654 79.2875 8.75448 79.2835 8.75406 79.279C8.70793 79.1349 8.66757 78.9849 8.63297 78.835C8.62047 78.5718 8.62238 78.3081 8.63873 78.0451C8.71611 77.6766 8.82018 77.3143 8.95011 76.961C9.06686 76.7105 9.19976 76.4678 9.34797 76.2345C9.35951 76.2114 9.41717 76.1191 9.4806 76.0154C9.48637 76.0096 9.48636 76.0096 9.48636 76.0038C9.57285 75.9058 9.65935 75.802 9.75161 75.7098C9.9073 75.5368 10.0745 75.3869 10.2417 75.2312C10.5669 75.0183 10.9038 74.8239 11.2508 74.6488C11.8013 74.4532 12.3662 74.3009 12.9403 74.1933C13.787 74.126 14.6379 74.1337 15.4832 74.2163C16.2838 74.3552 17.0738 74.5498 17.8473 74.7987C17.3785 75.7086 16.8447 76.5834 16.2501 77.4165C16.227 77.4511 16.2039 77.4858 16.1809 77.5146V77.5146ZM9.76888 75.6175C9.71808 75.699 9.6581 75.7745 9.59013 75.8423C9.63588 75.7574 9.69641 75.6812 9.76888 75.6175V75.6175Z" fill="#55295E"/>
<path d="M92.4787 6.75218C92.4269 8.56275 92.375 10.3733 92.323 12.1839C92.2135 16.2029 92.1001 20.2239 91.9828 24.2467C91.8617 28.7732 91.7349 33.2977 91.6023 37.8203C91.5388 40.1556 91.4735 42.4909 91.4062 44.8262C91.2275 51.1171 91.0506 57.406 90.8757 63.6931C90.8584 64.3447 90.8354 64.9905 90.8181 65.642C90.7316 68.7616 90.6451 71.8811 90.5586 75.0005C90.4606 78.3853 90.3645 81.77 90.2703 85.1548C90.2011 87.6919 90.13 90.2309 90.0569 92.7719C89.538 111.183 89.0191 129.595 88.5001 148.006C88.4782 149.146 88.0155 150.233 87.2092 151.04C86.4028 151.846 85.3156 152.309 84.1755 152.331C83.0313 152.321 81.9367 151.863 81.1277 151.054C80.3186 150.245 79.86 149.15 79.8508 148.006C80.1391 137.65 80.4313 127.294 80.7273 116.938C80.9868 107.574 81.2501 98.2094 81.5172 88.8451C81.6037 85.7602 81.6902 82.6734 81.7767 79.5846C81.9093 74.9371 82.04 70.2896 82.1688 65.642C82.1861 64.9905 82.2092 64.3447 82.2265 63.6931C82.238 63.1222 82.2553 62.5572 82.2726 61.9863C82.5263 52.9623 82.78 43.9363 83.0337 34.9084C83.1375 31.3564 83.2375 27.8025 83.3336 24.2467C83.4489 20.1931 83.5642 16.1414 83.6796 12.0917C83.7315 10.3099 83.7776 8.53392 83.8295 6.75218C83.8514 5.61208 84.3141 4.52479 85.1204 3.71846C85.9267 2.91214 87.014 2.44947 88.1541 2.42755C89.2982 2.43677 90.3928 2.89537 91.2019 3.7044C92.0109 4.51344 92.4695 5.60807 92.4787 6.75218V6.75218Z" fill="#55295E"/>
<path d="M329.715 7.95225C325.18 25.1237 319.76 42.0491 313.477 58.6606C311.743 63.2427 309.969 67.8156 308.073 72.3333L308.509 71.3003C307.663 73.4521 306.582 75.5041 305.286 77.4192C305.198 77.5427 305.108 77.665 305.017 77.7862C305.465 77.2132 305.55 77.1 305.272 77.4466C305.126 77.6199 304.981 77.7938 304.83 77.9629C304.426 78.4147 303.993 78.8391 303.533 79.2333C303.417 79.3323 303.299 79.4293 303.18 79.5241L303.721 79.1037C303.658 79.2517 303.217 79.4482 303.08 79.5321C302.636 79.8001 302.173 80.035 301.694 80.2347L302.727 79.7987C301.942 80.1149 301.123 80.3395 300.287 80.468L301.437 80.3135C300.615 80.427 299.782 80.436 298.958 80.3401L300.108 80.4945C299.434 80.4017 298.774 80.224 298.145 79.9658L299.178 80.4017C298.842 80.2553 298.518 80.0826 298.21 79.885C298.053 79.783 297.572 79.4188 298.201 79.8992C298.855 80.3985 298.285 79.9421 298.151 79.8093C298.039 79.6988 297.937 79.5787 297.828 79.4662C297.319 78.9446 298.402 80.3638 298.057 79.7537C297.872 79.448 297.703 79.133 297.55 78.81L297.986 79.843C297.788 79.3513 297.647 78.8383 297.566 78.3142L297.721 79.4638C297.638 78.812 297.638 78.1525 297.719 77.5005L297.565 78.6502C297.67 77.9225 297.863 77.2101 298.138 76.5282L297.702 77.5612C297.894 77.1026 298.121 76.6595 298.382 76.2359C298.501 76.0169 298.642 75.81 298.802 75.6181C298.83 75.6273 298.07 76.4904 298.473 76.0546C298.579 75.9406 298.677 75.8205 298.784 75.7075C298.955 75.5265 299.138 75.361 299.318 75.1897C299.92 74.6163 298.475 75.7467 299.17 75.293C299.674 74.9618 300.204 74.6727 300.755 74.4285L299.722 74.8644C300.645 74.4852 301.613 74.2256 302.602 74.0919L301.453 74.2463C302.691 74.1038 303.943 74.1186 305.178 74.2904L304.028 74.136C305.592 74.3731 307.121 74.803 308.579 75.416L307.546 74.9801C310.654 76.3142 313.406 78.2952 316.154 80.2376C318.807 82.1593 321.604 83.8762 324.518 85.3733C330.787 88.4904 337.536 90.5319 344.482 91.4126C354.443 92.6328 364.552 91.3319 373.879 87.6293C383.207 83.9266 391.456 77.9407 397.868 70.2208C398.651 69.391 399.101 68.3028 399.135 67.1628C399.127 66.0175 398.672 64.9205 397.868 64.1049C396.282 62.6484 393.285 62.2372 391.752 64.1049C390.3 65.8777 388.739 67.5583 387.078 69.137C386.302 69.8727 385.506 70.5858 384.689 71.2761C384.223 71.6705 383.75 72.057 383.27 72.4358C383.044 72.615 382.337 73.092 383.422 72.322C383.173 72.4985 382.935 72.6912 382.689 72.8725C379.058 75.5496 375.123 77.7879 370.966 79.5409L371.999 79.105C367.538 80.9762 362.853 82.2599 358.061 82.9236L359.211 82.7692C354.282 83.4175 349.288 83.4101 344.361 82.7472L345.511 82.9017C340.584 82.2251 335.766 80.9129 331.178 78.9978L332.211 79.4338C327.782 77.4744 323.58 75.0401 319.677 72.1735C317.646 70.6695 315.504 69.3213 313.269 68.1406C310.666 66.811 307.847 65.9542 304.944 65.6101C299.501 64.9696 293.955 67.0895 290.963 71.7916C288.21 76.119 288.245 82.3112 292.101 85.9909C296.073 89.7807 302.087 89.7487 306.768 87.3781C311.276 85.095 313.983 80.3518 315.887 75.8793C320.172 65.8143 323.966 55.5168 327.5 45.1669C330.997 34.9273 334.168 24.5841 337.013 14.1373C337.366 12.8434 337.713 11.5482 338.055 10.2516C338.632 8.067 337.328 5.45417 335.035 4.93182C333.929 4.64729 332.757 4.80325 331.764 5.36678C330.772 5.93031 330.037 6.85734 329.715 7.9523L329.715 7.95225Z" fill="#55295E"/>
<path d="M372.865 6.75193L371.308 61.9878L369.76 116.936L368.884 148.006C368.894 149.15 369.353 150.245 370.161 151.053C370.97 151.862 372.065 152.321 373.209 152.331C374.349 152.309 375.436 151.846 376.242 151.04C377.049 150.234 377.511 149.146 377.533 148.006L379.09 92.7704L380.638 37.8221L381.514 6.75193C381.504 5.60798 381.045 4.51365 380.237 3.70472C379.428 2.8958 378.333 2.43704 377.189 2.42731C376.049 2.44934 374.962 2.91204 374.156 3.71834C373.349 4.52464 372.887 5.61187 372.865 6.75193V6.75193Z" fill="#55295E"/>
<path d="M214.975 114.251C213.285 121.792 209.235 128.599 203.414 133.683C202.987 134.052 202.561 134.409 202.117 134.761C201.038 134.859 199.968 134.959 198.905 135.061C198.023 135.142 197.152 135.228 196.287 135.309L196.131 135.326L196.022 134.381L195.584 130.552C193.884 127.776 192.83 124.654 192.5 121.416C192.171 118.178 192.574 114.907 193.681 111.846C195.203 107.741 197.959 104.114 200.669 100.516C204.412 95.5454 208.05 90.6326 208.183 84.5724C210.024 86.9288 211.555 89.5121 212.738 92.2587C211.622 92.7842 210.619 93.5226 209.786 94.4325C209.549 94.692 209.313 95.0553 209.474 95.3667C209.613 95.6319 209.959 95.6953 210.258 95.7299C210.979 95.8048 211.706 95.8798 212.427 95.9548C213.003 96.0182 213.58 96.0759 214.156 96.1393C214.854 98.429 215.327 100.781 215.569 103.162C215.958 106.867 215.757 110.609 214.975 114.251V114.251Z" fill="#55295E"/>
<path d="M234.119 99.1378C230.717 101.611 228.727 105.169 227.182 109.09C225.598 109.597 224.174 110.507 223.048 111.731C222.811 111.991 222.575 112.354 222.736 112.665C222.875 112.93 223.221 112.994 223.521 113.028C224.241 113.103 224.968 113.178 225.689 113.253C224.143 117.889 222.725 122.687 219.992 126.602C218.174 129.187 215.805 131.336 213.055 132.893C212.305 133.32 211.531 133.703 210.737 134.04C207.808 134.265 204.934 134.505 202.117 134.761C201.038 134.859 199.968 134.959 198.905 135.061C198.023 135.142 197.152 135.228 196.287 135.309C196.281 134.992 196.281 134.675 196.287 134.357C196.469 125.909 199.577 117.786 205.08 111.374C205.34 111.074 205.605 110.78 205.876 110.486C208.664 107.508 211.943 105.031 215.569 103.163C221.283 100.192 227.687 98.802 234.119 99.1378V99.1378Z" fill="#AB7F58"/>
<path d="M199.903 132.103L199.239 134.063L198.905 135.061C198.023 135.142 197.152 135.228 196.287 135.309L196.131 135.326C195.174 135.424 194.223 135.522 193.271 135.62C193.023 135.332 192.776 135.038 192.533 134.738C186.515 127.45 183.626 118.075 184.498 108.664C185.37 99.2517 189.932 90.5676 197.187 84.509C196.425 88.4934 197.313 92.3106 198.772 96.099C198.617 96.1624 198.467 96.2258 198.323 96.295C197.206 96.8205 196.203 97.5589 195.37 98.4688C195.134 98.7283 194.897 99.0916 195.059 99.403C195.197 99.6682 195.543 99.7316 195.843 99.7662C196.564 99.8412 197.29 99.9161 198.011 99.9911C198.588 100.055 199.164 100.112 199.741 100.176C200.012 100.204 200.283 100.233 200.554 100.262C200.594 100.349 200.629 100.429 200.669 100.516C202.313 104.079 204.083 107.66 205.081 111.373C205.331 112.305 205.527 113.25 205.669 114.205C206.113 117.43 205.825 120.713 204.827 123.811C203.829 126.91 202.146 129.744 199.903 132.103V132.103Z" fill="#AB7F58"/>
<path d="M257.944 48.4707C252.98 38.7881 245.289 30.6412 236.244 24.6544C227.17 18.6758 216.758 15.0349 205.936 14.0562C204.517 13.9273 203.095 13.8518 201.669 13.8297C199.985 13.8045 174.646 21.1134 166.157 27.0816C157.673 32.977 150.694 40.7844 145.784 49.8735C140.881 59.0124 138.47 69.2804 138.792 79.6462C139.212 90.0744 142.119 100.251 147.27 109.328C152.35 118.376 159.564 126.045 168.284 131.67C177.128 137.313 186.012 152.275 196.454 152.803C206.975 153.336 218.974 139.221 228.569 134.936C238.164 130.615 246.46 123.854 252.629 115.328C258.623 106.972 262.501 97.2874 263.93 87.1038C265.414 76.6768 264.722 65.9231 261.161 55.9571C260.248 53.3964 259.173 50.8959 257.944 48.4707C256.917 46.4496 253.91 45.7053 252.027 46.9193C251.057 47.5166 250.354 48.4648 250.065 49.5668C249.776 50.6688 249.923 51.8397 250.475 52.8362C251.078 54.0231 251.638 55.2297 252.156 56.4559L251.72 55.4229C253.681 60.1367 255.014 65.0877 255.685 70.1486L255.531 68.9989C256.245 74.4896 256.232 80.0505 255.493 85.5378L255.647 84.3881C254.9 89.8749 253.435 95.2399 251.291 100.345L251.727 99.3125C250.624 101.917 249.339 104.441 247.88 106.865C247.141 108.09 246.357 109.286 245.527 110.453C245.163 110.965 244.787 111.468 244.409 111.97C243.915 112.625 245.082 111.115 244.572 111.757C244.485 111.866 244.399 111.976 244.311 112.085C244.05 112.412 243.784 112.737 243.515 113.058C241.717 115.203 239.755 117.205 237.647 119.046C237.122 119.504 236.588 119.952 236.045 120.39C235.775 120.608 235.508 120.835 235.226 121.038C235.236 121.031 236.136 120.347 235.604 120.744C235.436 120.868 235.27 120.995 235.102 121.119C233.984 121.948 232.835 122.735 231.657 123.479C228.945 125.188 226.1 126.675 223.149 127.926L224.182 127.491C219.092 129.633 213.742 131.097 208.269 131.845L209.419 131.69C203.95 132.43 198.406 132.439 192.934 131.72L194.084 131.874C189.11 131.206 184.246 129.891 179.613 127.962L180.646 128.398C177.963 127.265 175.376 125.917 172.911 124.367C171.69 123.598 170.502 122.782 169.345 121.918C169.18 121.795 169.016 121.67 168.852 121.546C168.324 121.147 169.231 121.839 169.238 121.844C168.932 121.624 168.636 121.388 168.353 121.138C167.795 120.683 167.245 120.218 166.703 119.742C164.538 117.834 162.515 115.77 160.653 113.566C160.187 113.015 159.73 112.456 159.284 111.888C159.091 111.642 158.738 111.144 159.517 112.193C159.415 112.055 159.308 111.92 159.205 111.782C158.956 111.453 158.711 111.121 158.469 110.786C157.622 109.614 156.817 108.414 156.054 107.184C154.33 104.402 152.825 101.489 151.554 98.4728L151.99 99.5058C149.909 94.5547 148.486 89.3522 147.757 84.0312L147.911 85.1808C147.254 80.276 147.245 75.306 147.884 70.3988L147.729 71.5484C148.384 66.7963 149.663 62.1512 151.532 57.7332L151.096 58.7662C152.272 56.0005 153.659 53.3293 155.245 50.7765C156.039 49.499 156.88 48.2526 157.769 47.0373C157.971 46.7612 158.175 46.4867 158.381 46.214C158.568 45.9673 159.082 45.3529 158.205 46.438C158.291 46.3316 158.374 46.2221 158.459 46.1148C158.946 45.4969 159.446 44.8885 159.958 44.2899C161.894 42.0233 163.991 39.8996 166.233 37.9351C166.8 37.4385 167.375 36.9524 167.96 36.4768C168.225 36.2607 168.493 36.0468 168.762 35.8351C168.87 35.7505 168.979 35.6675 169.086 35.5822C167.934 36.4987 168.766 35.8317 169.027 35.6358C170.232 34.733 171.469 33.8755 172.738 33.0633C175.559 31.2591 178.527 29.6952 181.61 28.3881L180.577 28.8241C185.052 26.9452 204.876 22.5106 208.482 22.9946L207.332 22.8402C212.632 23.58 217.812 25.0111 222.739 27.097L221.706 26.661C224.203 27.7213 226.63 28.9403 228.972 30.3105C230.142 30.9963 231.289 31.7195 232.413 32.4801C232.944 32.8401 233.471 33.2082 233.991 33.5843C234.252 33.7723 234.51 33.9624 234.768 34.1545C234.911 34.2611 235.052 34.3693 235.195 34.4762C235.794 34.9254 234.37 33.8257 234.998 34.3225C237.1 35.9742 239.097 37.7563 240.976 39.6581C241.899 40.598 242.79 41.5677 243.65 42.5672C244.091 43.0801 244.522 43.6005 244.945 44.1284C245.155 44.3907 245.871 45.3399 244.994 44.1772C245.208 44.4614 245.425 44.7436 245.636 45.0299C247.459 47.4964 249.077 50.1071 250.475 52.8362C251.509 54.853 254.504 55.605 256.392 54.3877C257.363 53.7906 258.065 52.8424 258.354 51.7403C258.643 50.6382 258.496 49.4671 257.944 48.4707Z" fill="#55295E"/>
<path d="M207.553 119.046C207.107 119.066 206.665 118.949 206.287 118.71C205.91 118.471 205.615 118.122 205.442 117.709C205.27 117.297 205.228 116.842 205.323 116.405C205.418 115.968 205.645 115.572 205.973 115.268C206.028 115.05 206.068 114.893 206.123 114.674C206.103 114.627 206.083 114.579 206.063 114.532C204.057 109.747 191.253 123.085 190.7 127.582C190.456 129.569 190.559 131.584 191.003 133.537C186.856 124.49 184.702 114.657 184.689 104.704C184.688 102.207 184.826 99.7115 185.104 97.2295C185.334 95.1948 185.652 93.1746 186.06 91.169C188.282 80.2862 193.055 70.086 199.986 61.406C203.949 61.6273 207.423 61.0235 207.758 53.3419C207.818 51.9754 208.831 50.7923 209.055 49.4462C208.676 49.4959 208.292 49.5269 207.913 49.5517C207.795 49.5579 207.671 49.5641 207.554 49.5703L207.509 49.5723C207.093 49.5909 206.681 49.489 206.322 49.2787C205.962 49.0684 205.672 48.7588 205.484 48.3871C205.297 48.0154 205.221 47.5974 205.265 47.1835C205.31 46.7696 205.473 46.3775 205.736 46.0543C205.899 45.8532 206.062 45.6522 206.226 45.4514C206.474 45.1412 206.729 44.8372 206.977 44.5271C207.005 44.4976 207.032 44.4665 207.057 44.434C207.343 44.0804 207.628 43.733 207.913 43.3795C207.393 42.571 206.692 41.8939 205.866 41.4007C203.007 39.7259 199.061 40.8858 196.996 43.4725C194.924 46.0592 194.533 49.6882 195.253 52.92C195.96 55.67 197.131 58.2796 198.714 60.6368C198.559 60.8353 198.398 61.0276 198.243 61.2261C195.408 64.8714 192.937 68.7858 190.866 72.913C191.452 68.3355 184.285 51.8043 181.514 48.3027C178.185 44.0968 171.359 45.9324 170.773 51.264C170.767 51.3156 170.762 51.3672 170.756 51.4188C171.168 51.6511 171.571 51.8976 171.965 52.1583C172.46 52.4892 172.844 52.962 173.066 53.5147C173.288 54.0675 173.338 54.6744 173.209 55.2559C173.08 55.8375 172.779 56.3665 172.344 56.7738C171.909 57.1811 171.362 57.4476 170.773 57.5383L170.713 57.5476C165.203 65.4148 182.866 85.891 187.288 81.2935C185.207 87.191 183.901 93.334 183.405 99.5681C183.123 103.246 183.14 106.941 183.454 110.616L183.436 110.486C182.453 102.481 165.6 90.5794 160.679 91.5708C157.844 92.1419 155.051 92.012 155.482 94.8718C155.488 94.9175 155.495 94.9631 155.503 95.0088C156.266 95.3199 157.01 95.6783 157.729 96.0819C158.141 96.3142 158.544 96.5606 158.938 96.8213C159.434 97.1522 159.817 97.625 160.039 98.1778C160.261 98.7305 160.311 99.3374 160.182 99.919C160.053 100.501 159.752 101.03 159.317 101.437C158.883 101.844 158.335 102.111 157.746 102.201L157.686 102.211C157.643 102.217 157.605 102.223 157.562 102.229C155.054 110.859 173.654 124.787 184.962 120.355H184.968C186.088 125.225 187.712 129.964 189.812 134.498H207.119C207.181 134.306 207.237 134.107 207.293 133.915C205.691 134.016 204.083 133.92 202.504 133.63C203.788 132.054 205.072 130.466 206.356 128.891C206.385 128.861 206.412 128.83 206.437 128.798C207.088 127.991 207.746 127.191 208.397 126.385L208.398 126.384C208.432 123.912 208.149 121.446 207.554 119.046L207.553 119.046ZM187.734 80.059L187.743 80.0467L187.734 80.0714V80.059ZM183.901 114.617L183.752 114.282C183.758 114.04 183.758 113.798 183.752 113.55C183.752 113.482 183.74 113.414 183.74 113.345C183.795 113.773 183.845 114.201 183.907 114.629L183.901 114.617Z" fill="#55295E"/>
<path d="M13.0901 83.0328C16.5931 83.0328 19.4329 80.193 19.4329 76.69C19.4329 73.187 16.5931 70.3472 13.0901 70.3472C9.58708 70.3472 6.74731 73.187 6.74731 76.69C6.74731 80.193 9.58708 83.0328 13.0901 83.0328Z" fill="#55295E"/>
<path d="M89.2036 152.227C92.7066 152.227 95.5464 149.387 95.5464 145.884C95.5464 142.381 92.7066 139.541 89.2036 139.541C85.7006 139.541 82.8608 142.381 82.8608 145.884C82.8608 149.387 85.7006 152.227 89.2036 152.227Z" fill="#55295E"/>
<path d="M378.089 152.227C381.592 152.227 384.431 149.387 384.431 145.884C384.431 142.381 381.592 139.541 378.089 139.541C374.586 139.541 371.746 142.381 371.746 145.884C371.746 149.387 374.586 152.227 378.089 152.227Z" fill="#55295E"/>
<path d="M393.657 71.5004C397.16 71.5004 400 68.6607 400 65.1577C400 61.6546 397.16 58.8149 393.657 58.8149C390.154 58.8149 387.314 61.6546 387.314 65.1577C387.314 68.6607 390.154 71.5004 393.657 71.5004Z" fill="#55295E"/>
<path d="M375.205 12.6856C378.708 12.6856 381.548 9.84581 381.548 6.34278C381.548 2.83976 378.708 0 375.205 0C371.702 0 368.863 2.83976 368.863 6.34278C368.863 9.84581 371.702 12.6856 375.205 12.6856Z" fill="#55295E"/>
<path d="M110.538 65.1577C110.535 66.7779 109.908 68.3346 108.788 69.5057C107.669 70.6768 106.142 71.3726 104.523 71.4492C102.905 71.5258 101.319 70.9772 100.094 69.9171C98.8688 68.8569 98.098 67.3664 97.9413 65.7538C97.7845 64.1412 98.2537 62.5301 99.2517 61.2538C100.25 59.9775 101.7 59.1338 103.303 58.8972C104.906 58.6606 106.538 59.0492 107.863 59.9827C109.187 60.9162 110.101 62.3231 110.417 63.9122C110.499 64.3223 110.539 64.7396 110.538 65.1577V65.1577Z" fill="#55295E"/>
<path d="M237.394 31.1373C240.897 31.1373 243.737 28.2975 243.737 24.7945C243.737 21.2915 240.897 18.4517 237.394 18.4517C233.891 18.4517 231.051 21.2915 231.051 24.7945C231.051 28.2975 233.891 31.1373 237.394 31.1373Z" fill="#55295E"/>
<path d="M174.543 24.7946C174.539 26.4147 173.913 27.9714 172.793 29.1425C171.673 30.3136 170.146 31.0095 168.528 31.086C166.91 31.1626 165.324 30.6141 164.099 29.5539C162.873 28.4938 162.103 27.0032 161.946 25.3906C161.789 23.7781 162.258 22.1669 163.256 20.8906C164.254 19.6143 165.705 18.7706 167.308 18.534C168.91 18.2974 170.543 18.6861 171.867 19.6196C173.191 20.5531 174.106 21.9599 174.422 23.549C174.503 23.9592 174.544 24.3764 174.543 24.7946V24.7946Z" fill="#55295E"/>
<path d="M92.6633 6.34282C92.6594 7.963 92.0329 9.51971 90.9133 10.6908C89.7937 11.8619 88.2667 12.5577 86.6483 12.6343C85.0299 12.7109 83.444 12.1624 82.2188 11.1022C80.9936 10.0421 80.2229 8.5515 80.0661 6.93892C79.9094 5.32634 80.3785 3.71519 81.3766 2.4389C82.3746 1.16262 83.8251 0.318876 85.428 0.0822849C87.0308 -0.154306 88.6632 0.234362 89.9874 1.16786C91.3117 2.10135 92.2263 3.50822 92.5422 5.09733C92.6235 5.50748 92.6641 5.92468 92.6633 6.34282V6.34282Z" fill="#55295E"/>
<path d="M303.705 85.3393C307.208 85.3393 310.048 82.4995 310.048 78.9965C310.048 75.4934 307.208 72.6537 303.705 72.6537C300.202 72.6537 297.362 75.4934 297.362 78.9965C297.362 82.4995 300.202 85.3393 303.705 85.3393Z" fill="#55295E"/>
<path d="M203.95 27.6776C209.046 27.6776 213.176 23.5471 213.176 18.4518C213.176 13.3565 209.046 9.22589 203.95 9.22589C198.855 9.22589 194.724 13.3565 194.724 18.4518C194.724 23.5471 198.855 27.6776 203.95 27.6776Z" fill="#55295E"/>
</svg>
