<svg width="158" height="103" viewBox="0 0 158 103" fill="none" xmlns="http://www.w3.org/2000/svg">
<path d="M57.7582 9.35287C70.5408 16.8189 79.5905 27.226 79.5905 27.226" stroke="#55295E" stroke-width="5" stroke-miterlimit="10" stroke-linecap="round"/>
<path d="M33.8895 2C36.9438 2 39.9981 2.45248 43.0523 3.13121C44.5229 3.47057 45.8803 3.92306 47.3509 4.37554" fill="#AB7F58"/>
<path d="M33.8895 2C36.9438 2 39.9981 2.45248 43.0523 3.13121C44.5229 3.47057 45.8803 3.92306 47.3509 4.37554" stroke="#AB7F58" stroke-width="3" stroke-miterlimit="10" stroke-linecap="round"/>
<path d="M79.5905 27.226C79.5905 27.226 57.7581 52.2257 33.8896 52.2257C10.0211 52.2257 4.70443 37.0675 4.70443 37.0675C4.70443 37.0675 -0.386006 28.1309 4.70443 17.1582C4.70443 17.1582 8.55055 6.52484 23.7088 3.13121" stroke="#55295E" stroke-width="2" stroke-miterlimit="10" stroke-linecap="round"/>
<path d="M101.423 45.0991C88.6401 37.6331 79.5905 27.226 79.5905 27.226" stroke="#55295E" stroke-width="5" stroke-miterlimit="10" stroke-linecap="round"/>
<path d="M125.178 52.452C122.124 52.452 119.07 51.9995 116.015 51.3207C114.545 50.9814 113.187 50.5289 111.717 50.0764" fill="#AB7F58"/>
<path d="M125.178 52.452C122.124 52.452 119.07 51.9995 116.015 51.3207C114.545 50.9814 113.187 50.5289 111.717 50.0764" stroke="#AB7F58" stroke-width="3" stroke-miterlimit="10" stroke-linecap="round"/>
<path d="M79.5905 27.226C79.5905 27.226 101.423 2.22626 125.291 2.22626C149.16 2.22626 154.476 17.3845 154.476 17.3845C154.476 17.3845 159.567 26.321 154.476 37.2937C154.476 37.2937 150.63 47.9271 135.472 51.3207" stroke="#55295E" stroke-width="2" stroke-miterlimit="10" stroke-linecap="round"/>
<path d="M6.46211 96.5167L6.46213 96.5166L6.45833 96.5128C5.22093 95.2754 4.44174 93.5551 4.44174 91.6462C4.44174 89.7374 5.22093 88.0171 6.45833 86.7797L6.45835 86.7797L6.46211 86.7758C7.69973 85.5113 9.41871 84.7342 11.2672 84.7342C13.116 84.7342 14.8648 85.5116 16.1319 86.7777C17.3435 88.0172 18.1216 89.7101 18.1216 91.6462C18.1216 93.5824 17.3434 95.2754 16.1318 96.5148C14.8647 97.7809 13.116 98.5583 11.2672 98.5583C9.41871 98.5583 7.69973 97.7812 6.46211 96.5167ZM3.64038 99.2909L3.64047 99.291C5.57887 101.29 8.30336 102.5 11.2672 102.5C14.2614 102.5 16.9551 101.289 18.9201 99.2937L18.9229 99.2909C20.8221 97.3315 22.0633 94.6427 22.0633 91.6462C22.0633 88.6498 20.8221 85.961 18.9229 84.0016L18.923 84.0016L18.9174 83.996C16.9559 82.0345 14.2645 80.7925 11.2672 80.7925C8.30021 80.7925 5.5781 82.0336 3.64313 83.9988L3.64312 83.9988L3.64038 84.0016C1.74125 85.961 0.5 88.6498 0.5 91.6462C0.5 94.6427 1.74125 97.3315 3.64038 99.2909Z" fill="#AB7F58" stroke="#AB7F58"/>
<path d="M38.5617 96.5167L38.5617 96.5166L38.5579 96.5128C37.3205 95.2754 36.5413 93.5551 36.5413 91.6462C36.5413 89.7374 37.3205 88.0171 38.5579 86.7797L38.5579 86.7797L38.5617 86.7758C39.7993 85.5113 41.5183 84.7342 43.3668 84.7342C45.2156 84.7342 46.9643 85.5116 48.2314 86.7777C49.443 88.0172 50.2211 89.7101 50.2211 91.6462C50.2211 93.5824 49.443 95.2754 48.2314 96.5148C46.9643 97.7809 45.2156 98.5583 43.3668 98.5583C41.5183 98.5583 39.7993 97.7812 38.5617 96.5167ZM35.7399 99.2909L35.74 99.291C37.6784 101.29 40.4029 102.5 43.3668 102.5C46.3609 102.5 49.0546 101.289 51.0197 99.2937L51.0225 99.2909C52.9216 97.3315 54.1629 94.6427 54.1629 91.6462C54.1629 88.6498 52.9216 85.961 51.0225 84.0016L51.0225 84.0016L51.017 83.996C49.0555 82.0345 46.364 80.7925 43.3668 80.7925C40.3998 80.7925 37.6777 82.0336 35.7427 83.9988L35.7427 83.9988L35.7399 84.0016C33.8408 85.961 32.5995 88.6498 32.5995 91.6462C32.5995 94.6427 33.8408 97.3315 35.7399 99.2909Z" fill="#AB7F58" stroke="#AB7F58"/>
<path d="M68.112 101.74V87.6374L77.8601 101.74H80.1673V81.5521H77.2833V95.7704L67.4487 81.5521L65.1991 81.5232V101.74H68.112Z" fill="#55295E"/>
<path d="M124.928 90.2042H115.785V93.1459H124.928V98.8275H115.583V101.74H127.87V81.5809H115.555V84.4938H124.928V90.2042Z" fill="#55295E"/>
<path d="M94.6453 93.1171H103.788V90.1754H94.6453V84.4938H103.99V81.5809H91.7036V101.74H104.018V98.8275H94.6453V93.1171Z" fill="#55295E"/>
<path d="M139.406 81.5809C141.252 84.1477 144.539 88.7333 146.702 91.7039L139.406 101.74H142.982L148.462 94.1842L153.97 101.74H157.518C155.585 99.0582 152.384 94.6745 150.221 91.7039L157.518 81.5809H153.97L148.462 89.1371L142.982 81.5809H139.406Z" fill="#55295E"/>
</svg>
