<svg width="109" height="72" viewBox="0 0 109 72" fill="none" xmlns="http://www.w3.org/2000/svg">
<rect y="1" width="108.54" height="69.35" fill="#55295E"/>
<path d="M39.36 7.09898C48.2244 12.2764 54.5 19.4934 54.5 19.4934" stroke="white" stroke-width="5" stroke-miterlimit="10" stroke-linecap="round"/>
<path d="M22.8079 2C24.9259 2 27.0439 2.31378 29.162 2.78446C30.1818 3.01979 31.1231 3.33358 32.1429 3.64736" stroke="#AB7F58" stroke-width="3" stroke-miterlimit="10" stroke-linecap="round"/>
<path d="M54.5 19.4934C54.5 19.4934 39.36 36.8299 22.8079 36.8299C6.25587 36.8299 2.56892 26.3182 2.56892 26.3182C2.56892 26.3182 -0.961144 20.121 2.56892 12.5117C2.56892 12.5117 5.23607 5.13783 15.7478 2.78445" stroke="white" stroke-width="2" stroke-miterlimit="10" stroke-linecap="round"/>
<path d="M69.64 31.8878C60.7757 26.7104 54.5 19.4934 54.5 19.4934" stroke="white" stroke-width="5" stroke-miterlimit="10" stroke-linecap="round"/>
<path d="M86.1136 36.9868C83.9956 36.9868 81.8775 36.673 79.7595 36.2024C78.7397 35.967 77.7984 35.6532 76.7786 35.3395" stroke="#AB7F58" stroke-width="3" stroke-miterlimit="10" stroke-linecap="round"/>
<path d="M54.5 19.4934C54.5 19.4934 69.64 2.15691 86.1921 2.15691C102.744 2.15691 106.431 12.6686 106.431 12.6686C106.431 12.6686 109.961 18.8659 106.431 26.4751C106.431 26.4751 103.764 33.849 93.2522 36.2024" stroke="white" stroke-width="2" stroke-miterlimit="10" stroke-linecap="round"/>
<path d="M12.22 64.1668C12.22 65.6068 11.64 66.8668 10.74 67.7868C9.8 68.7268 8.5 69.3068 7.12 69.3068C5.74 69.3068 4.46 68.7268 3.54 67.7868C2.62 66.8668 2.04 65.5868 2.04 64.1668C2.04 62.7468 2.62 61.4668 3.54 60.5468C4.46 59.6068 5.74 59.0268 7.12 59.0268C8.5 59.0268 9.8 59.6068 10.74 60.5468C11.64 61.4668 12.22 62.7268 12.22 64.1668ZM0 64.1668C0 66.1468 0.82 67.9268 2.08 69.2268C3.36 70.5468 5.16 71.3468 7.12 71.3468C9.1 71.3468 10.88 70.5468 12.18 69.2268C13.44 67.9268 14.26 66.1468 14.26 64.1668C14.26 62.1868 13.44 60.4068 12.18 59.1068C10.88 57.8068 9.1 56.9868 7.12 56.9868C5.16 56.9868 3.36 57.8068 2.08 59.1068C0.82 60.4068 0 62.1868 0 64.1668Z" fill="#AB7F58"/>
<path d="M34.48 64.1668C34.48 65.6068 33.9 66.8668 33 67.7868C32.06 68.7268 30.76 69.3068 29.38 69.3068C28 69.3068 26.72 68.7268 25.8 67.7868C24.88 66.8668 24.3 65.5868 24.3 64.1668C24.3 62.7468 24.88 61.4668 25.8 60.5468C26.72 59.6068 28 59.0268 29.38 59.0268C30.76 59.0268 32.06 59.6068 33 60.5468C33.9 61.4668 34.48 62.7268 34.48 64.1668ZM22.26 64.1668C22.26 66.1468 23.08 67.9268 24.34 69.2268C25.62 70.5468 27.42 71.3468 29.38 71.3468C31.36 71.3468 33.14 70.5468 34.44 69.2268C35.7 67.9268 36.52 66.1468 36.52 64.1668C36.52 62.1868 35.7 60.4068 34.44 59.1068C33.14 57.8068 31.36 56.9868 29.38 56.9868C27.42 56.9868 25.62 57.8068 24.34 59.1068C23.08 60.4068 22.26 62.1868 22.26 64.1668Z" fill="#AB7F58"/>
<path d="M46.54 71.1668V61.3868L53.3 71.1668H54.9V57.1668H52.9V67.0268L46.08 57.1668L44.52 57.1468V71.1668H46.54Z" fill="white"/>
<path d="M85.94 63.1668H79.6V65.2068H85.94V69.1468H79.46V71.1668H87.98V57.1868H79.44V59.2068H85.94V63.1668Z" fill="white"/>
<path d="M64.94 65.1868H71.28V63.1468H64.94V59.2068H71.42V57.1868H62.9V71.1668H71.44V69.1468H64.94V65.1868Z" fill="white"/>
<path d="M95.98 57.1868C97.26 58.9668 99.54 62.1468 101.04 64.2068L95.98 71.1668H98.46L102.26 65.9268L106.08 71.1668H108.54C107.2 69.3068 104.98 66.2668 103.48 64.2068L108.54 57.1868H106.08L102.26 62.4268L98.46 57.1868H95.98Z" fill="white"/>
</svg>
