<svg width="200" height="200" viewBox="0 0 200 200" fill="none" xmlns="http://www.w3.org/2000/svg">
<rect width="200" height="200" fill="#55295E"/>
<path d="M85.36 70.099C94.2244 75.2764 100.5 82.4934 100.5 82.4934" stroke="white" stroke-width="5" stroke-miterlimit="10" stroke-linecap="round"/>
<path d="M68.8079 65C70.9259 65 73.0439 65.3138 75.162 65.7845C76.1818 66.0198 77.1231 66.3336 78.1429 66.6474" stroke="#AB7F58" stroke-width="3" stroke-miterlimit="10" stroke-linecap="round"/>
<path d="M100.5 82.4934C100.5 82.4934 85.36 99.8299 68.8079 99.8299C52.2559 99.8299 48.5689 89.3182 48.5689 89.3182C48.5689 89.3182 45.0389 83.121 48.5689 75.5117C48.5689 75.5117 51.2361 68.1378 61.7478 65.7845" stroke="white" stroke-width="2" stroke-miterlimit="10" stroke-linecap="round"/>
<path d="M115.64 94.8878C106.776 89.7104 100.5 82.4934 100.5 82.4934" stroke="white" stroke-width="5" stroke-miterlimit="10" stroke-linecap="round"/>
<path d="M132.114 99.9868C129.996 99.9868 127.878 99.6731 125.759 99.2024C124.74 98.967 123.798 98.6533 122.779 98.3395" stroke="#AB7F58" stroke-width="3" stroke-miterlimit="10" stroke-linecap="round"/>
<path d="M100.5 82.4934C100.5 82.4934 115.64 65.1569 132.192 65.1569C148.744 65.1569 152.431 75.6686 152.431 75.6686C152.431 75.6686 155.961 81.8658 152.431 89.4751C152.431 89.4751 149.764 96.849 139.252 99.2024" stroke="white" stroke-width="2" stroke-miterlimit="10" stroke-linecap="round"/>
<path d="M58.22 127.167C58.22 128.607 57.64 129.867 56.74 130.787C55.8 131.727 54.5 132.307 53.12 132.307C51.74 132.307 50.46 131.727 49.54 130.787C48.62 129.867 48.04 128.587 48.04 127.167C48.04 125.747 48.62 124.467 49.54 123.547C50.46 122.607 51.74 122.027 53.12 122.027C54.5 122.027 55.8 122.607 56.74 123.547C57.64 124.467 58.22 125.727 58.22 127.167ZM46 127.167C46 129.147 46.82 130.927 48.08 132.227C49.36 133.547 51.16 134.347 53.12 134.347C55.1 134.347 56.88 133.547 58.18 132.227C59.44 130.927 60.26 129.147 60.26 127.167C60.26 125.187 59.44 123.407 58.18 122.107C56.88 120.807 55.1 119.987 53.12 119.987C51.16 119.987 49.36 120.807 48.08 122.107C46.82 123.407 46 125.187 46 127.167Z" fill="#AB7F58"/>
<path d="M80.48 127.167C80.48 128.607 79.9 129.867 79 130.787C78.06 131.727 76.76 132.307 75.38 132.307C74 132.307 72.72 131.727 71.8 130.787C70.88 129.867 70.3 128.587 70.3 127.167C70.3 125.747 70.88 124.467 71.8 123.547C72.72 122.607 74 122.027 75.38 122.027C76.76 122.027 78.06 122.607 79 123.547C79.9 124.467 80.48 125.727 80.48 127.167ZM68.26 127.167C68.26 129.147 69.08 130.927 70.34 132.227C71.62 133.547 73.42 134.347 75.38 134.347C77.36 134.347 79.14 133.547 80.44 132.227C81.7 130.927 82.52 129.147 82.52 127.167C82.52 125.187 81.7 123.407 80.44 122.107C79.14 120.807 77.36 119.987 75.38 119.987C73.42 119.987 71.62 120.807 70.34 122.107C69.08 123.407 68.26 125.187 68.26 127.167Z" fill="#AB7F58"/>
<path d="M92.54 134.167V124.387L99.3 134.167H100.9V120.167H98.9V130.027L92.08 120.167L90.52 120.147V134.167H92.54Z" fill="white"/>
<path d="M131.94 126.167H125.6V128.207H131.94V132.147H125.46V134.167H133.98V120.187H125.44V122.207H131.94V126.167Z" fill="white"/>
<path d="M110.94 128.187H117.28V126.147H110.94V122.207H117.42V120.187H108.9V134.167H117.44V132.147H110.94V128.187Z" fill="white"/>
<path d="M141.98 120.187C143.26 121.967 145.54 125.147 147.04 127.207L141.98 134.167H144.46L148.26 128.927L152.08 134.167H154.54C153.2 132.307 150.98 129.267 149.48 127.207L154.54 120.187H152.08L148.26 125.427L144.46 120.187H141.98Z" fill="white"/>
</svg>
