<svg width="606" height="83" viewBox="0 0 606 83" fill="none" xmlns="http://www.w3.org/2000/svg">
<path d="M21.0788 61.1195L21.075 61.1157C16.0389 56.0796 12.8649 49.0741 12.8649 41.3021C12.8649 33.5301 16.0389 26.5246 21.075 21.4885L21.075 21.4886L21.0788 21.4847C26.1151 16.3389 33.1192 13.167 40.6657 13.167C48.2125 13.167 55.3289 16.3392 60.4773 21.4866C65.405 26.5247 68.578 33.4202 68.578 41.3021C68.578 49.184 65.405 56.0795 60.4773 61.1177C55.3289 66.2651 48.2125 69.4372 40.6657 69.4372C33.1192 69.4372 26.1151 66.2653 21.0788 61.1195L21.0788 61.1195ZM12.2287 69.8395L12.2288 69.8396C19.4523 77.2889 29.609 81.8021 40.6657 81.8021C51.8353 81.8021 61.8786 77.2879 69.2114 69.8424L69.2142 69.8395C76.3159 62.5124 80.9429 52.474 80.9429 41.3021C80.9429 30.1302 76.3159 20.0919 69.2142 12.7647L69.2142 12.7647L69.2087 12.7592C61.8795 5.42992 51.8384 0.802124 40.6657 0.802124C29.6059 0.802124 19.4516 5.429 12.2315 12.7619L12.2287 12.7647C5.12703 20.0919 0.5 30.1302 0.5 41.3021C0.5 52.474 5.12703 62.5124 12.2287 69.8395Z" fill="#AB7F58" stroke="#AB7F58"/>
<path d="M145.09 61.1195L145.086 61.1157C140.05 56.0796 136.876 49.0741 136.876 41.3021C136.876 33.5301 140.05 26.5246 145.086 21.4885L145.086 21.4886L145.09 21.4847C150.126 16.3389 157.13 13.167 164.677 13.167C172.224 13.167 179.34 16.3392 184.489 21.4866C189.416 26.5247 192.589 33.4202 192.589 41.3021C192.589 49.184 189.416 56.0795 184.489 61.1177C179.34 66.2651 172.224 69.4372 164.677 69.4372C157.13 69.4372 150.126 66.2653 145.09 61.1195L145.09 61.1195ZM136.24 69.8395L136.24 69.8396C143.464 77.2889 153.62 81.8021 164.677 81.8021C175.847 81.8021 185.89 77.2879 193.223 69.8424L193.225 69.8395C200.327 62.5124 204.954 52.474 204.954 41.3021C204.954 30.1302 200.327 20.0919 193.225 12.7647L193.225 12.7647L193.22 12.7592C185.891 5.42992 175.85 0.802124 164.677 0.802124C153.617 0.802124 143.463 5.429 136.243 12.7619L136.24 12.7647C129.138 20.0919 124.511 30.1302 124.511 41.3021C124.511 52.474 129.138 62.5124 136.24 69.8395Z" fill="#AB7F58" stroke="#AB7F58"/>
<path d="M260.276 80.2993V25.8146L297.936 80.2993H306.85V2.3049H295.708V57.2353L257.713 2.3049L249.022 2.19348V80.2993H260.276Z" fill="#FFFFFF"/>
<path d="M479.774 35.7311L444.454 35.7311V47.096L479.774 47.096V69.0458H443.674V80.2993H491.139V2.41631H443.562V13.6698H479.774V35.7311Z" fill="#FFFFFF"/>
<path d="M362.783 46.9845H398.103V35.6196H362.783V13.6697H398.883V2.41623H351.418V80.2992H398.995V69.0458H362.783V46.9845Z" fill="#FFFFFF"/>
<path d="M535.707 2.41623C542.838 12.3327 555.54 30.0485 563.897 41.5249L535.707 80.2992H549.524L570.693 51.107L591.975 80.2992H605.68C598.214 69.9371 585.847 53.0012 577.49 41.5249L605.68 2.41623H591.975L570.693 31.6084L549.524 2.41623H535.707Z" fill="#FFFFFF"/>
</svg>
